<svg id="Calque_1" data-name="Calque 1" xmlns="http://www.w3.org/2000/svg" viewBox="0 0 1762 480"><path d="M453.64,146.66Q439.75,130,411.36,130q-32.14,0-51.3,23.93l-1.48-20.66H313.69V311.84h47.68V186q10.06-17.19,30.22-17.16c10.21,0,17.52,2.26,21.91,6.83s6.65,11.94,6.65,22V311.84h47.68V196.53C467.59,174.38,462.84,157.82,453.64,146.66Z" fill="#fff"/><path d="M646,218.62q0-42.39-21-65.49T567.34,130q-24.5,0-43.52,11.46t-29.45,32.66C487.48,188.28,484,204.31,484,222.24v4.63q0,40.08,24.7,64.19t63.89,24c14.9,0,28.38-2.79,40.61-8.49s21.91-13.53,29-23.63l-23.46-26.24c-10.33,13.3-24.64,19.95-43,19.95-11.87,0-21.67-3.5-29.45-10.57s-12.4-16.39-14-28H646Zm-46.85-13.06H532.85c1.66-11.94,5.4-21.08,11.28-27.49s13.53-9.62,23-9.62c10.1,0,17.94,2.91,23.4,8.73s8.37,14,8.61,24.58Z" fill="#fff"/><path d="M1015.36,272.91V71.25H965.57V312.89H1121.1v-40Z" fill="#fff"/><path d="M1289.38,219.12q0-42.66-21.18-65.87t-58-23.23q-24.54,0-43.75,11.53t-29.61,32.83c-7,14.25-10.48,30.33-10.48,48.4v4.66c0,26.84,8.32,48.41,24.84,64.54s38,24.23,64.32,24.23c14.92,0,28.56-2.83,40.81-8.54s22-13.64,29.22-23.84L1262,257.44c-10.43,13.42-24.84,20.07-43.31,20.07-12,0-21.84-3.49-29.66-10.59s-12.48-16.47-14-28.22h114.39ZM1242.25,206h-66.76c1.66-12,5.49-21.18,11.36-27.66s13.64-9.65,23.18-9.65c10.2,0,18,2.94,23.57,8.76s8.42,14.08,8.65,24.73Z" fill="#fff"/><path d="M1448.4,271.41V193.56c0-20.12-6.55-35.76-19.52-46.9S1398.33,130,1376.21,130c-14.64,0-27.78,2.5-39.54,7.54s-20.79,12-27.22,20.79a48.55,48.55,0,0,0-9.59,28.89h48c0-6.76,2.27-12,6.87-15.91s10.93-5.82,19-5.82c9.15,0,15.91,2.49,20.13,7.48s6.43,11.59,6.43,19.91v10.31H1378.2q-40,.16-61.16,15.42t-21.18,43.8q0,23.2,17.36,38.53t43.69,15.25c18.63,0,33.71-6.49,45.36-19.41a53.63,53.63,0,0,0,4.76,16.09h48.46v-2.83C1450.89,301.35,1448.51,288.43,1448.4,271.41Zm-48.13-9.31A31.06,31.06,0,0,1,1387,274.79a41.16,41.16,0,0,1-19.57,4.72c-7.32,0-13-1.95-17.24-5.77a19.23,19.23,0,0,1-6.33-14.8l.17-2.83q2.33-24.87,38.31-24.9h18Z" fill="#fff"/><path d="M1558.24,130c-17,0-30.39,8.21-40,24.73l-1.33-21.46h-45.3v179.6h48V195.39c5.6-12.31,17.52-18.41,35.65-18.41a130.25,130.25,0,0,1,17.3,1.34l.67-46.19A52.13,52.13,0,0,0,1558.24,130Z" fill="#fff"/><path d="M1721.75,146.77c-9.31-11.2-23.45-16.75-42.47-16.75q-32.35,0-51.62,24.06l-1.5-20.79H1581v179.6h48V186.24c6.71-11.47,16.85-17.24,30.33-17.24,10.31,0,17.69,2.27,22.12,6.87s6.6,12,6.6,22.18V312.89h48v-116C1735.78,174.66,1731,157.91,1721.75,146.77Z" fill="#fff"/><path d="M1540.86,367.23c-17,2.15-70.18-7-207.08,6.65-166,16.51-359.16,49.28-519.76,74.63-101.19,16-218.8,50.25-157.87-75.85,34.53-71.48,172.2-170.93,183.52-264.3.67-5.54,2.45-16.64-8.66-19.85-21.45-6.22-48.69,5.56-70,18.89-30.44,19,12.62,48.21,1.57,58-21.12,22.19-38.29,27.69-62.78-4.26C638.85,65.62,871.94-31.34,909.32,53.21c3,6.82,6.88,16.13,8.58,25.39,2.49,13.64,2.1,27.18,2.14,32.63C921,221.31,694.16,386.82,764,383.82c24.52-1.05,211-16.87,433.6-35.44C1431.62,328.86,1546.18,345.47,1540.86,367.23Z" fill="#ff9700"/><path d="M149.6,57.45a133.6,133.6,0,1,0,133.59,133.6A133.57,133.57,0,0,0,149.6,57.45Zm0,243.44A109.85,109.85,0,1,1,259.44,191.05,109.82,109.82,0,0,1,149.6,300.89Z" fill="#ff9700"/><path d="M221.68,192l-75.83,66.86c-10.15,8.9-26,3.32-28.85-10.1L96.57,151.11c-2.79-13.48,9.5-24.94,22.39-20.84l96.25,30.81C228.45,165.36,232.13,182.82,221.68,192Z" fill="#fff"/></svg>